<svg xmlns="http://www.w3.org/2000/svg" width="969" height="1264.6" viewBox="0 0 256.4 334.6"><path d="M126.5 334.3c7.5-1 15.6.5 3.6.3h-1.8l-1.8-.3zm14.3 0c6.5-1.2 6.5 1.1 0 0zm6.3 0c8-1.1 25.4-.1 8.5 0-2.8 0-5.7.3-8.5 0zm21.9 0c-.3-3.2 6.7 1.1 0 0zm-28.1-2c-5.4-6.6-16.3 1-18-5-35-1.3-69.9-.8-104.7-2.2-2.3-.7-6.7-3.8-6.6-7.5a97.3 97.3 0 0 1-1.5-20.4c3.1-5.7-1-13-.6-22.1 1.1-4.6-.5-8.7.9-14.6 5-6.4.1-6.4 2.1-11.8-2.3-5.7 3.4-7.1-1.6-9.9-3.7-8.9 3.6-8.1 5.1-12.3-4-5.8-6.1 4.4-5.4-6.5.1-10.2.8-11-1.8-15.6a176 176 0 0 0 .6-31.4c.3-6.6-.2-12.4 2.7-18.6.1-5.2 0-17.2 1-16.2 1-12-3-23.1-2.3-35.5-3.6-4.4.9-8 0-16-.9-5.2.2-8.5-3.9-11.3C4 69.3 9.6 59 4.5 51.2 7.6 44 6.5 34 5 29.4c5.5-1.5-2.2-12.7 2-13.1-.9-2.6 4.4-11.4 6.6-8.7 6.8-3.8 11-5.7 22.4-2 17.1-.8 34.5-6 51.5-2.2 11.2 4.6 22.6-.6 33.8.2 4.5-2.3 22.1-3.1 17 0-7.6-1.2 3.8.6.2 2.7-2.7 2.9 12.5-2.4 9.2-.4 6.6 1.4 17.7.3 23 .6 2.5-.2 11.3-.4 11-2 6.9.3 14.6-1.1 21.2.3 7 1.1 5-1.8 9.5-1.1 7.7 3.4 17.7-1.3 25 1.6 3.8-.3 16.4.1 14.3 4.2-4.2 6.4 2.1 3.5-2.1 9.5.8 5 3.5 6-3 10.7 6.4-1.8-7.7 6.5 2.4 4 2.4 7.8-3 8.2 4.8 15.7-3.8 7.1-6 6.9-2.6 15-6.4 4.4-.3 21.6-5.2 31.2-.7 10 5.1 19.8 3 30.4-2.4 8.5-7 12-2.8 13.5 1.8 6.3 0 16.2 5.3 19 .4 5.6 3.3-8.7 4 3.2 4.5 7.6-9 7.7.2 9.5-4 1.5.8 18.7-4.9 15.4 0 3.1-4.5 6.4.9 9.7-5.5.6 2.3 3-3 3.3 1.6 7.3.4 4 .2 11.2-1.4 6.3-1.8 10.7-.8 13.2-2 3.4 1.3 9.7-.5 12.5-2.3 3.2-.4 5.7.1 11.7 5 5.2-2.5 16.8.4 18.4-.7 5.6-2.1 3.2 0 11.3 1.5 13.7-.4 18.5.4 33 2.5 10.1-4.5 10.3-6.7 13.8-8.4-1.6-14.7 3.4-14.4 3.9-.4-1.3-13.1-3.2-10.8 1.3 9-1.6 8.7 1.3-1.1 2-5-3-10.2-4.9-17.6-5.4-9.5-1.2-23.5.3-30.3 3.1 8.4 2.3-15.2-1.8-9.7 1.8-11-1.6-8.5.5-17 .8zm10.4-2.3c-.9-1.3-1.3 1.3 0 0zm8.5-.4c-1.4-1.3-1.4 1.3 0 0zm9-1.7c0-2.3-4 1.3 0 0zm58.7-2.1c-.4-1.3-.8 1.2 0 0zm4.3-1.4c-1.1-3-1.9.5 0 0zm-212-.2c-.9-1.2-1.5.7 0 0zM229 323c-1.5.4-.6 1 0 0zm17-47.5c-1.2-2.9-.6 3.1 0 0zm-.3-1.8c0-2.5-1.9 2 0 0zm-230.1-3.3c-.2-1.8-4.2.7 0 0zm-2-2c-.8-1.2-1.4.7 0 0zm4-.9c-2-3.3-3.5 0 0 0zm-1-9.7c-.9-4-5 1.8 0 0zm3.8-2.2c-3.3-1.4-3.3 1.3 0 0zm-7.7-5c-1.6-.4 1 1.5 0 0zm2-4.2c-1.5-2.7-3.2 1 0 0zm-.7-8c-1.3-1.1-.9 1 0 0zm-.6-2.7c1.7-9.5-3.3-1 0 0zm1.7-11.8c1.1-8.4-.5-1.3-2.5-.8.6.3 1.8 1.6 2.5.8zm0-3.3c.9-1.2.9 1.3 0 0zm-1.6.9c0-4.1-3.2 3.7 0 0zm-.7-2.6c-2-3.7-1 2 0 0zm3.3-.7c-1.3-1.3-1.3 1.2 0 0zm-4.2-3c.2-2.3-1.5 1.4 0 0zM10.7 204c-.1-3-1 2.6 0 0zm241-19.7c-.9-1.3-.9 1.3 0 0zm-1.6-7c-.9-1.3-.4 1.2 0 0zm-.7-2.2c-.9-1.2-.4 1.3 0 0zm-6.6-1.7c1.2-4-6.4 3 0 0zm8.7-5c-2.8-1.3 1.4 1.4 0 0zm-238.8-1c-1.2-2.5-.8 3 0 0zm241-1.5c.4-4-2.8 2.4 0 0zm-2.5-.2c-.5-2.4-2.6 1.7 0 0zm-240.4-2.2c.5-6.9-2.2.3 0 0zm232.9-4.5c8.1-2.1-7.2-3.7 0 0zm-.8-6.1c-1.5-1.3-.2 1.8 0 0zm-3.3-25.3c-2.8-5.6-2.7 4.5 0 0zm1.9 1c-.5-1.4-1.3 1.3 0 0zm5.8-68.1c-.4-1.3-.9 1.2 0 0zM6.3 30.8c-2-.4 1 2 0 0zm241.3-4.7c1.9-10.5-4.1 5.8 0 0zm-223.2-10c-.5-3.7 1.4-5.4-2.4-3.3.6 0-2 3.8 2.4 3.2zm15.4-2.4c-2.5-1-2.3 1.6 0 0zm1-1.2c2.2-7.5-9.6 2.5 0 0zm4.3-.5c-3.1-.4.3 1.7 0 0zm53.5.1c-2.9-1.4-1.2 2 0 0zm-24-1c4.3-3.6-11.6 2.6 0 0zm16.4-.4c-.8-2.7-3.3 2 0 0zM37.7 10c-2.1-1.3-3 1.3 0 0zm2.9-1.4c0-2-4.5 2.5 0 0zm-2.5 0c-1.8-2-3.6 1.7 0 0zm66.4-.2c-2.2-5-3.9 2 0 0zm-15-.1c-1.7-2.8-1.5 1.6 0 0zm45-4.8c-2.8-2-4.7 1.4 0 0zm-7.7 327.3c1.8-3 1.4 2.2 0 0zm45.6-1.2c5-.3 3.4 1 0 0zm71.2-5.3c.1-3.1 2.8 2 0 0zM0 296.1c3.6-2 8.8 2.8 0 0zm7.4-32.3c1.2-1.8 1.2 2 0 0zm-.4-3.5c1.5-.6.1.6 0 0zm-1-7.5c-2.7-6.2 4.7-15 1.4-2.5.1.7.4 3.6-1.3 2.5zm243.7-14c-.3-11.5 6.1-1.3 0 0zM10.8 228c0-2.5 1.1.8 0 0zm3-1.2c.7-2 .5 2.6 0 0zm-5-6.6c1-.7.8 1.2 0 0zm-4.6-23.1c.7-4.4.2 4.3 0 0zm0-4.5c1.2-4.7.7 5 0 0zm2-25.6c-2.4-2.2 3.5.6 0 0zm1.6-3.2c-6.5-2.6 2.3-3.4 0 0zM6 156.3c.2-11.6 1.2 11 0 0zm.5-11.4c1-14.4.2 13.6 0 0zm161-139.2c6.5-3.2 6 .4 0 0zm-26-.3c-.6-1.3 1.7 1.4 0 0zm-5.2-1.7c.5-1.3 1 1.2 0 0zm10.8-.6c1-1 1.5 1.9 0 0zm.4-.9c-2.8-5.1 5.1.6 0 0zM77 .7c0-2 3.5.8 0 0z" opacity=".6"/><g opacity=".6"><path d="M141.7 327.6c-5.7-.3-11.2-1.4-13.4-.8-3.4-.2-6-.4-13.7-.6-30.6-.4-61.3.6-91.8-1.1-7.1 1.6.4-4.4-8.3-1-3.5-8.2-3.4-10.5-4-19.8 1.8-11.5-.5-17.4.3-30.9.4-7.8-2-19.3 6.5-16.3 10-2.6-8.2.5-4-6.3-1-2.6 2.5-6.1 1.2-12.4-4.2-5-1.6 8.2-3.6-1.8 4.9.4 2.9-8.5 5-10.3.3-1.8-.9-14.3-1.7-5.7-4.1-3.4 2.9-20.3-2.6-19 .4 7.8-2.7-9.4 1.7-5.3-4.5-6.5-2.1-18-2.6-27 0-4.4 2.7-8.5.1-9.7 2.5-9.2 3.6-21.9 2.5-33.4-1.6-9.6-2.2-23-4-28.1 3.7-5.2.4-17.2 0-21.3-7.3-4.9-.2-4.1-1.8-6.5-1-8.2 4-10.7-2-16-.2-5.4 4.7 2.5 4.6-5.8 2.8-4.1-3-7.6-.8-3-3.8.6.8 5.6-3.7 2.6 2.4-4.7 1.9-9.1 0-14.8.3-.7 5.7-14.4 9-14.4 3.5-8 8.7-.8 13.3-3.8-5.8-2.5 8-4.1 8.9-2.5C50 17.2 56.9 6 68.5 7.3c-1.8 10.2 14 3.6 23.2 5.5 14-.1 28.5 0 42.2-.8 4.2-.4-3.4-5.6-6.6-3.8-2.6-3.9-16.4.9-4.7-3.1 9.2-.7 15.3-1.8 15.4 3.7 2-1.7 5.3-2.7 2.3 1-.1 5.5 14.5 1.5 21.4 2.4-1.8-1.7 3.7-4.5-2.5-3.2 3.4 2.4-7 3.8-5.5 1.3 6.3-2.3-4.7.3-3.9.1-.6-2.5.7-4.2 3.3-3.1 6.1.8 15.8-.3 22.9-.6 7.8-.4 1.5-3.4 12.2-2.2 6.3.8 14.5-2.7 18.4 4 4.6 11 17.6.7 25.3 4 4.5-1 23.2-.6 13.1 5.4 2 2.9 6.2 9.3 1.5 5-4.8 8.2 7.3 6.8-1.8 9.2 0 5 6.1-1.3 5.2 7.6-2 6.9 2.7 10.6 4 12.5-9.4 1.3-3 16.5-6.5 23.6 2.3 12-5.9 24.1-2.3 36.5.7 7.8-5.2 10-7.7 15.6 1.4 1.6 3.7-1 3.4 1.4 5.1-2.4-5.6 4.3 2.5 2.5 5.8 4.5-4.4 5.8 2.7 8.4.5 6.5 2.8 17.8 2.2 17.6-.2 10.9.3 18.8-.1 30.2 1.4 3.6-6.4 4.6.1 7-3 3.1 1.8 4.3-2 7.4 2.9.1 1.7 4 .8 6.8-.4 3.8 1.6 5 .1 7.7-1.4 4.8-2 6.6-1.3 11.7-3.2 5.5 3.7-4.5 2.1 3.3 1.5 4.3-5.2 6.2-.7 9.6-2.7 3.3 4.8 14.3 1 21.7-3 1.6-3 10.6-3.6 16 4-2.2 2.6 6.1 3.7 12.5-1.8 5.4.2 12.8-2.8 6.6 0 3.6-1.4 3.7 2.4 5.9.7 9.1-2.7 7.9-2 11 3.7 4-3.3 8-9.3 9.4-4.4-2.5-9.3-1.3-7.1.4-27.3.5-54.7.4-82 1.2 5.7 1.8-5.3 1.4-5.8 1.4zm-120.3-3.4c-3.2-1 2.2 1.6 0 0zm217.3 0c-.1-.9-2 .4 0 0zm-213.6-.5c-.4-1.3-.9 1.3 0 0zm-8.9-3c-1.9-3.1-.7 2.9 0 0zm229.6-2.3c-1-1.3-1 1.3 0 0zm.7-21.9c-1-1.2-1 1.3 0 0zm.2-2.3c-1.3-.4-.6.6 0 0zm-233.6-8.6c-2-1.3-1.3 1.3 0 0zm3.9-15.8c-6.8-1.6 6.6-2.1-2.8-5.7-1 2.2-3.8 10.5 2.8 5.7zm-1.7-36c-1.8.2 1 2.5 0 0zm229.6-.7c-1.8 0 1.2 2.5 0 0zm.5-5.5c-.3-1.9-.8 1.8 0 0zm.4-5.7c-1.6-2.7-2 3.5 0 0zm-230-7c1-3.5-3.2 3.6 0 0zm-.4-1c-.8-1.3-1 .6 0 0zm-.3-5.2c-.5-1.3-1 1.2 0 0zm-.3-1.6c-1.1-1.4.4 1.7 0 0zm0-1.2c-.8-.7-1.3 1.1 0 0zm229-3.2c-1.3-1.3-.9 1.3 0 0zm.2-1.4c-.4-1.3-.9 1.2 0 0zm2.4-1c-1.3-.3-.7.7 0 0zm-233.2-2c-1.3-.5-.6.6 0 0zm232.6-6.5c1.8-2.4-5 1.5 0 0zm-.7-4c-1.4-1-1.5 1.8 0 0zM14.3 185c-.5-3.9-.2 5 0 0zm228.7-2.8c6.4-1.4-5.8-1 0 0zm-230.9-.6c-1.4-3.3-.7 3.4 0 0zm233.4-2c1.4-3-10.4 1.2 0 0zm.3-2.7c-1-1.3-1.4 1.3 0 0zm-2.5-3.4c5-1.9-4.3-8-1.5-1.8-1.3-1.7-4.7 6 1.5 1.8zm-230.6-5.6c-.3-3.4-2.4 2 0 0zm228.3 0c.3-1.5-1.7 2 0 0zm6.9-.3c-.8-1.2-1 .7 0 0zm-5.3-.9c-2-1.3-1.3 1.3 0 0zm-230-.7c-.4-1.3-.9 1.3 0 0zm235.3-.4c-1.9-1.3-1.9 1.3 0 0zm-4-2.6c-1.2-3.5-5.6 4-.2 1.4zm4-1c-1 .6-.5 1.5 0 0zm-7 .1c15.8-1.6-6.4-1 0 0zm7-2.3c-.8-1.8-.3 1.9 0 0zm-3.7-1.1c7.6-5.5-10.3-.6 0 0zm-228-4.3c.4-5-3 .3 0 0zm222.2-.7c-.6-3-2.9 2.2 0 0zm4.8-1c-1-4.5-5.5 4.5 0 0zm-227-2.4c-2-3-.2 2.9 0 0zM238 150c-.7-1.7-1 1.3 0 0zM16 148.4c-1.1-1.9.4 2.7 0 0zm225.7-3.2c5-5.2-7-.6 0 0zm-.8-6.4c3.9-3.6-7-.6 0 0zm.4-4c-5.6-1.6-1.4 4.6 0 0zm3.4-.7c-.3-2.5-4.7 1.6 0 0zm-225.1-.4c-4.8-2.5-1 1.8 0 0zm219.8-.6c-1-1.8-1 1.6 0 0zm-230-59c-3.1-.7-.5.5 0 0zm238.2-13.5c-1.2-1.6-1.3 1.8 0 0zM18 17c-.6-.6.3 2 0 0zm.8-1c-.9-1.3-.9 1.2 0 0zm66.7-.8c-2.2-1.4.6 2 0 0zm12.2 0c.5-5.5-3.9 3.5 0 0zm-23.2-.1c-1.3-.4-.7.6 0 0zM83 15c-3-1.3-2.2 1.1 0 0zm-45.6-.7c8.8-2-7.6.1 0 0zm37.7 0c-2.6-2.2-1 1.6 0 0zm94.1-2.5c-1.8-1.3-1.8 1.3 0 0zm5.7 0c-1.9-1.3-1.9 1.3 0 0zm5 0c-9.7 0 7.3.6 0 0zm-39.9-1c-4.7-3-2.5 2.1 0 0zm27.2.2c2-2.5-4.7-.5 0 0zm4.8.2c-1.7-2.9-2.7 1.2 0 0zm-10.5-.2c-1.4-1.2-1.4.6 0 0zm-3.9-1c2.6-2.2-4.6 1.2 0 0zm-21.2 0c.8-1.7-3.1 1.4 0 0zm28.6-.5c-2-2-2.4 2.4 0 0zm3.7-.5c-1.8-2.8-2.8 1 0 0zm-40.4-2c-1.4-1.1-1.4 1 0 0zm-.8-1.4c-3.5-.3-.5 2.3 0 0zm104.3 319.2c1.4-1.3 1 1.3 0 0zm-214.3-1.2c1.4-1 2 1.2 0 0zm227.4-2.4c1.1-3.2 4.8 2.3 0 0zM11.4 252.8c.4-1.3.8 1.2 0 0zM249.7 236c4.8-8.6 1.7 8.3 0 0zm-238.9-.7c1.5-1 1.3 1.5 0 0zm0-1.7c.3-1.8 1 2.6 0 0zm0-1.3c-.1-1.7 3.4.9 0 0zm2.5-1.7c.7-1.8 1 1.3 0 0zm232-4.6c1.2-1.4.4 1.4 0 0zm-233.8-4.4c.5-2.3 1.3 1.3 0 0zm1.8.2c.7-1.8 1 1.2 0 0zm-2.5-8.2c-1-4.8 3.4-2.7 0 0zm.7-3.5c-2.5-7.3 1.3-5.5 0 0zm-1-16.4c.4-2.3 1.3 1.3 0 0zm237-.9c1.4-1.3 1.4 1.3 0 0zm-9.2-66.7c2.8-.6 0 1.2 0 0zm14.2-73.3c.9-1.3.9 1.2 0 0zm-5.8-24.6c2.2-6.1 3.7.4 0 0zm-97.2-16.9c.1-.9 2 .4 0 0zm2.5 0c-1.8-2.1 2 .2 0 0zm-20.3-1.1c.2-1.3 2 1.5 0 0zm13.6-.7c-6.2-1.7 7.5-4.2.4.5l-.4-.5zm-21-.3c-4.6-1.6 3.4-.2 0 0zm35.8.2c1.3-1.3.9 1.3 0 0zM140.3 9c.9-1.2.4 1.3 0 0zM129 8.3c-.9-1.4 2.6 1.5 0 0z" opacity="1"/></g><g opacity=".6"><path d="M187.4 324.1a190.5 190.5 0 0 0-40-4c-9 2.4-15.4-2.8-26-1.9-5.7 1.3-12.2-.3-19.2.7-5.3-.4-18.7-1-18.5 1 1.5 1.3 16.1.5 22.7 1.2 6.3 1 11.5-1.1 16.2-.1 18.7 2.4-6.3.9-13.4 1-15 .4-30.3-1-45-1-5.3.4-12.3 1.5-19.8 1.1-6.5.2-13.5 1.1-21-1-4.8-5.2-.9-7.5-3.3-10.8-5.2 9-7.4-2-7.3-7.4-2.1-4.8 8-.7 6.2-4.2-.8-.5-11.9-4.7-3.3-6.1-2-3.5 2.9-11.3 5.2-15.8 2.4-8.1 1.7 9.8 4.8 11.9 4.6-8.6-.3-19.8 2.2-28.5-1.6-1.8-2-5.3-.7-9.6 2.1-7.5-3-14.3-1.2-20.9-.2-7 2.9-7.7 1.5-11.2 4.6-1.2 3-6.9-.6-7.8-2.3-1.2 5.2-.9 1-5.5-3-5-10.7 0-6.8 3.8-2.3 2-3.8-3.6-3 1.7 2.1.9-.2 2.1-.2 5.2 4-1 1.6 4.2 3.3 5.4-2 1 2.4 9.4 2 14-1.1 3.4 1 8.6-.5 11.7 3.3 7-3 8.1-1.7-.5 0-3.6-2.2-12.3-2.3-18.6-3.5-8.8-1.3-21.2-3-31.7 1.4-4.8 8-9 5.3-1.7 2.7 4.7 7.7 2.7 5.8-3.7-4.5-4.9 3.8-13.1 0-17.4-2-4.5-6.6-9.6-1.5-11.5 4 .3 3-6.2 3.1-7.7-.5 1.7-6.7.8-2.4-1.2 4.9 1.2 2.6-5 3.3-7.5a58 58 0 0 1-1.8-21.3c-3-6.3 2.5-10.1 3.8-9.7-2.4-5-3.1-3.7-1.8-7-2.4-1.9-5.4-5.2-5.6-8.2-2.7-5 4.2.2-2.4-5.4 1.7-3-3-6 1.3-6.2-3.5-1.7-7.5 1-7.3 6.7-1.8 6.2-3.1-18-3.3-5.1-1.4 5.5-2.2-16.6 0-12.8-2 1.6 6.7 2.5 7.2 4.8 10.6 6.5-1-2 .6-3.6-3-1.7-4.2-3.6 1.7-7-.5-1.8-5.4-4-4.3-11.4-1.4-7.1 3-19.8-1-24.1-5.6 1.9-4.6 8.4-6.3 2.8-6.1-4 4.1-1.3 4.8-7.6 5.3-3.8-1.1-5.3 4.1-6.3-2-6.6 1.9-7.5 8-7.4 4.3-3.6 19.3-.6 27.2-4C64 8.2 67 18.7 77 16.7c10.1-.4 21.1-.9 32.4-.8 7.9 2.6 26-6.6 20 2.3 9.5-3.7 26.7.2 32.8-4.5 9.9-.2 25 2.2 36.8.8 6.6.8 0-3.8 6-.3 9.2 1.3 17.5 2.7 27.8 2 10.2-2.8 5.6 6.4 4.7 12.7 4.7.6 11.7.8 1.3 1.1-3.2 4.2 3.3 10.6 1.7 16.3.5 7.2-5 12.4-4 14.8-6-1.7.9-11.8-4.5-13.4-3 8.5-1.3 22.2-.7 31.6a43 43 0 0 0-.2 15.2c2.2 6-.8 12.9-1 20.4 1 3.6.4 12 5.6 10.3-1.4-5.3-.7-8.4-1.3-13-.8-10-.1-20.1-1-30.2 4-3.8 6.2 6.9 4.6 10.3-1.4 6.3-1 13.1-.5 20.5a41.3 41.3 0 0 0-.6 11.2c-1.2 4.2 1.5 9.7.4 14.7-.7 8-1.6 1.2-4.6-1 .4 9-3 18.1-.3 26.5-.2 5.7-2 17.2.3 18.8-1.7 6.2-1 13.2-.3 21.2-.3 5.8-6.7 7.5.2 8.3-1.9-1.7-4.3 7.4-1.3 5.8-2.6.5 0 6 .8 5.2-4.4 1.5 4.5 9.7 3.3 12.9 4.8.1 4.9-7.3 6.4 3 5.3.5-.6 10.6.8 4-2.6-2.5-4.5 4.5-9.2 6 5.5-2.2 8.4.2 3 3 .4 5-4.1 3.7 4.6 4 4.8 4.2.5 10.7-2.8 7.7 1.4-2.3-8 2-2.3 1.8-.1 5.1 8.2-3 7.2 6.8-.9 10.8 6 11.6.1 16.8 1.3 8.2-.2 14.9-1 20.8 1.4.7-1.9 10.1-2.6 1-.4-.5-2.5-4.5-2.3-4.6.7-5-6-1.1-3 .9-4.4-4.3-3.4 3.3-4.4 1.7-1.4-1 1.1 3.1-2.9 3 6 1.3-10.2-.5-1.2 2.5-5 3.8-8.4-4.1-5.1 2.8-2.3.9-1.3 1.3.5 2.1-5-1.4 14.4 2.7.3 3.7-11.4 1-22.7-.7-34 .8zm-5-1.8c-1.2-.4-.6.7 0 0zm35.2-3.3c3-3.8-6.7-.4-1.4-1.2.7 1 2 3.3 1.4 1.2zm-50.3.5c-1.3-.4-.6.6 0 0zm35.6-.4c-1.6-1.6.4 1.7 0 0zm12 0c-1.3-.3-.6.7 0 0zm-33-.4c-.5-1.3-1 1.2 0 0zm10.3.1c0-2.8-3 .7 0 0zm-82.6-1c4-4.1-9.1-1 0 0zm75 .3c-1.3-.4-.7.6 0 0zm8.5-.3c-.8-1.2-1 .7 0 0zm-3.1-.3c-1.5-1.2-1 .6 0 0zm-21-1.1c4.3-2.5-11 .6 0 0zm44.8-.5c-1.3-1.4-.5 1.3 0 0zm4.7-.4c-.4-1.3-.8 1.3 0 0zm-38.1-.7c-1.5-1.6-5.2 1.8 0 0zm-14 .2c-.9-1.2-1 .7 0 0zm-52.6-.9c-.7-1.7-5 0 0 0zm55.4-.5c-4-2.3-3 2.3 0 0zm-3.3 0c-1.3-.5-.7.5 0 0zm12.4-.4c-2.3-1-2.9.6 0 0zm-40.7-.7c4.3-2.4-5.1 1.2 0 0zm-111.5-.2c-.8-1.5 4.4-7.9 2.4-7 4.6-4-7.5-2.4-6.5-.4-6.3-7.8-4.3.6.7 3 .1 1 1.7 5.6 3.4 4.4zm215.4-.3c-2.5-1.1.6 1.2 0 0zm-65.6-.7c-1-1.3-1 1.2 0 0zm42.1-.5c1-3.8-14.7-.8-2-1.2-.3.9 3.4 2.6 2 1.2zm-15-.3c-4.8-1-4.2 1 0 0zm3.6-.2c-3.5-.6-3 1 0 0zm17.3-.7c-2-.6-.3.6 0 0zm-53.5-.4c-2.5-.8-1.7.9 0 0zm8.7-.2c-8-2.6 3.6 2.3 0 0zm-28.2-.3c-1.2-1.8-1.8 1 0 0zm32.4.1c-1.4-1.3-1.4 1.3 0 0zm-5.4-1.3c-4.7 1-.7.9 0 0zm50 .6c-1.3-1.4-.4 1.4 0 0zm-85.8-.7c-2.3-.8 1 1.6 0 0zm12.2.3c-.9-1.3-1.3 1.3 0 0zm16.8 0c-1.7-1.2-2.2 1.4 0 0zm-127.2-.3c-.8-1.3-.4 1.3 0 0zm138.4-.2c-1.1-1.4.4 1.7 0 0zm-28.7-.1c-1.3-2.2-2.3 1.6 0 0zm-13-.5c-2.2-.8.1 1.6 0 0zm37 0c-.8-1.2-.4 1.4 0 0zm-21.6-.2c-2.5-.6-1.8 1 0 0zm73.6-.8c-4.2-1.3-1.6 1.7 0 0zm-186-.3c1.3-12-7.7 2 0 0zm194.9-1c-1-1.4-1 1.2 0 0zm-170.6-2.4c-1.3-1-1.8.4 0 0zm165.6-.2c3.4-.7-6.7.4 0 0zm-140-1c-.4-1.3-.9 1.2 0 0zm13 0c-1.4-4.1-3.2 1.5 0 0zm125.8 0c-.9-1.3-.9 1.2 0 0zM93 299.8c-.9-1.2-1.5.7 0 0zm148.5-2c-1-1.2-1.4 1.3 0 0zm-215.6-.6c-.8-1.3-.4 1.2 0 0zm-5.8-4.2c-6.6-5 3.4 6.3 0 0zm4.1.5c2.7-2.1-6.5 2.4 0 0zm1.5-3c-.2-4.6-4.6 3.8 0 0zm162.5-14.9c-1.5-.6-.7 1.7 0 0zm18.7-3.5c-1-1.6-1.3 1.3 0 0zm-20.8-1c-1.4-.5-1.4 1.2 0 0zm54.7-.8c-7.8-3.8-4.4 1.7 0 0zm-34.6-.7c-2.6-1.4.9 1.4 0 0zm30.2-7.7c-2.4-1.3-2.4 1.3 0 0zm-1.5-7.8c-4.6-1.9.3 1.6 0 0zm-52.2-2.1c-.9-1.3-.9 1.3 0 0zm55.2-1.7c1.5-1.8-3.1 1.4 0 0zM86.5 247c-2.6-1-3.8 1.1 0 0zm107-2c-3-2.6 1 2.4 0 0zm41.5-.4c-1.8-1.4-1.5 1 0 0zm2.2-.4c-2.8-1.3 1.4 1.4 0 0zm-148.8-.1c-.8-1.2-1 .7 0 0zm145.7-.6c-1.4-1.2-1 1.3 0 0zm4.7-.3c-.2-4.6-3.5.7 0 0zm-2.1-2.6c-.3-1.4-1 1.5 0 0zm.7-1.7c-2.1-1.3-3 1.4 0 0zm-32.3-9c-2.8-9.4-3.3 2.3 0 0zm-184.5-.1c-.8-1.3-.4 1.3 0 0zm-2.4-5.1c-.9-1.2-1.5.7 0 0zm1.2-5.8c-2-1.5-.1 3.5 0 0zm208.3-1.3c-1.6-3.3-2.2 1.2 0 0zm-189.4-1.4c-.8-1.2-1 .7 0 0zm-5.5-4c-1.3-3.7-3 1.1 0 0zm2-1.5c4.3-3.2-5.1 0 0 0zm-2-3.1c5.7 1.9-.4-6.5 0 0zm198.2-.3c1.6-2-2.8.2 0 0zm-211.7-2.6c-2.7-.6.8 2.1 0 0zm15.4-1.4c-3-5.6-11.3 1.3-3.8.4-5.9 3.2 2.2 1.2 3.8-.4zm3.2 1.5c.8-3.4-2.7 0 0 0zM18.7 203c1.5-1.5-.5-.5 0 0zm4.4-1.4c-.9-1.3-.9 1.2 0 0zm15.7 0c-1.8-1.3-1.8 1.3 0 0zm-2-.8c-1.5-3.3-8-.2 0 0zM19 198c-.6-1.8-.9 1 0 0zm4-.2c-2.8-1-4.9 1 0 0zm14.4-1c-1-1.3-1.8 1.3 0 0zm-17.8-2c-3.7-1-1.3 1.4 0 0zm209-11c-2.2-2.2-1.5 2.8 0 0zm-121.2-18c-2.5-1 .7 1.3 0 0zm125.2-.2c-1.3-.4-.7.6 0 0zM27 165c-1.8-1.4-1.1 1 0 0zm-2.7-1.4c-1.2-1.4-.4 1.3 0 0zm88.6-.4c-2-1.3-1.3 1.3 0 0zm-85.6-1c-1.8-.1-.2 1.9 0 0zm187.5-23.7c-.4-1.3-.8 1.3 0 0zm.2-2.1c-.8-2.5-1.4 2.6 0 0zm20 0c-3.6-2-3.7 2.1 0 0zm-.7-1.8c-1.5-1.2-3.4 1.4 0 0zm1.2-6.6c-1.8-2.2-1.6 1.6 0 0zM32.3 114c-1.4-1.3-1 1.3 0 0zm7.7-4.8c-1.3-1.1-1.4.7 0 0zm151.7-2c-.8-1.3-1 .6 0 0zM24.5 94.7c2.7-3.3-4.5-.1 0 0zM19 86.2c.5-1.9-3.4 1 0 0zm6.6-.6c-1.3-.4-.7.6 0 0zm-6.7-1.5c-.7-1.7-1.2 2.3 0 0zm2-.2c-2-2.2-.7 1.8 0 0zm-2.3-1.2c-6-7.1-7.8-2.3 0 0zm1-7.2c-.8-1.2-1.3.6 0 0zm3.5-4.7c-1.3-.4-.6.6 0 0zm57.2-4c2-4.1-2.1-.9 0 0zm-58-1c-2.6-2.2-2.7.7 0 0zm66-.2c-1.6-1.9-.1 1.8 0 0zm-11-3.2c-.2-3-2.6 2.6 0 0zm3-1.6c-1.3-1.3-.8 1.3 0 0zm-59.4-.4c-1.4-1.2-1.4 1.3 0 0zM78 60c-1.3-.4-.6.6 0 0zm-.1-.7c-2-.6-.4.6 0 0zm-57-12.4c-1.3-.4-.6.6 0 0zm212.5-.8c-2.2-4.5-3.4 4.4 0 0zm-209.5-.5c3.8-4.3-3.5-1.2-.4-.6-5.7-.1-2.7 1.7.4.6zm4.4 0c3.1-2.1-3 .9 0 0zm204.6-2c4.6-4.8-2.2-18.6-2.2-5.4.1.7-.3 7.1 2.2 5.3zM23 42.3c-.6-.6.3 2 0 0zm-1.1 0c-.5-1.2-.9 1.3 0 0zm47.6-1c-1.5.5-.7 1 0 0zm-43.8-.2c-1-4-6.8-.3-1.7 0-1.2.6 3.4.8 1.7 0zm29.5-1.6c-.4-1.3-.9 1.3 0 0zm3 0c-.9-.6-1.4 1.2 0 0zm-1-.3c-.5-1.4-1.3 1.3 0 0zm-32.8-1c-3.4-1.7 0 1.4 0 0zm180.5.4c-2.4-.7-.4.6 0 0zm-140.6-.3c-1.3-.4-.7.6 0 0zm-35-.6c8.5-5.2-9-2.2 0 0zm39.2-.1c-2.3-2 1 2 0 0zM22 37.2c5.7-3.6-6.1 1.3 0 0zm51.2 0c-1.1-1.8-1.3 1.2 0 0zm132.5 0c6.9-6-6.4.2 0 0zm-194.6-.7c-2.1-1.5-1.6 1 0 0zm14.1-.2c-.3-1.9-.8 1.8 0 0zm-3-.9c-1.3-1.3-.9 1.3 0 0zm41.5-.4c-2.1-1.4-1.6 1.1 0 0zm144-2c-3.5-3 .9 3.5 0 0zm-189.4-.5c-2-1.5-.2 1.7 0 0zm81.4.4c-1.4-1.1-2 1.1 0 0zm3.5-.3c-4.4-.9 2.1 1.1 0 0zm-33.7-.7c-1.4-1.3-.9 1.3 0 0zm4.8-.1c-2.2-.8 0 1.6 0 0zm-43.7-.2c-1.6-2.9-1.6.4 0 0zm3.9 0c-2.4-.6-.4.7 0 0zm174.8 0c-1.3-.3-.7.7 0 0zm-145-.6c-.5-1.6-3.2 1.3 0 0zm-32.5 0c-1.3-.5-.6.6 0 0zm38.8-.2c-.3-2.5 8.5-5.6 0-3.5 0 2-9.6 2.8 0 3.5zm-2.7-.5c1.4-1 1.3.6 0 0zm4.8.5c4.4-2-4 1 0 0zm-41.5-1c-1.4-.7-1.4 1.1 0 0zm3.3 0c-2.4-.6-.4.7 0 0zm175.3-.8c-1.5-.3 1 1.6 0 0zM65 29c.2-1.5-2.5.9 0 0zm35.2 0c-2-2.5 9-1.3 2.6-2.5-2.5-.6-11.5 2.1-2.6 2.6zm-66.9-.3c-.9-1.3-1.3 1.3 0 0zm39.7-.2c-3.4-1.4 1.1 2 0 0zm-5.9-1c-4.3-1.3 2.6 2.8 0 0zm6.7.6c-1.3-.4-.6.6 0 0zm-9.1-.4c4-3.9-3.6-.3 0 0zm44 0c4.3-2.9-6.9-2.3.1-1.7-.6.5-2.7 2.8-.1 1.6zM69 26.5c7.5-1.4.4-2.8-1-1-3-1.4 1.7.1 1 1zm-29.4-1.7c-4 .1-2.8 1.5 0 0zm36.7.8c-1.3-.4-.7.6 0 0zm-12-.5c-1.4-1.3-1 1.3 0 0zm1-.7c-1.8-1.3-1 1.3 0 0zM30 24c-.2-2.7 5.5-2.9-3-4-1.5-3-3.8 1.4-.3 2.6 3-1.6-.9 3.5 3.3 1.4zm5 .1c-2.4-2.3-2.9 1 0 0zm112 0c-1.3-1.3-.4 1.4 0 0zm-63-1c-1.3-1.3-1 1.6 0 0zm-16-.4c-1.4-1.2-.7 1.8 0 0zm-32.6 0c-.5-1.3-1 1.3 0 0zm2.3 0c3-3.7-3.6 0 0 0zm38.4-.6c1.6-5.6-2.5 2 0 0zm118.9.6c-3.4-2-2 1.2 0 0zM65.6 22c-1.4-1.3-.1 1.7 0 0zM25 22c-.8-.7-1.4 1.1 0 0zm64-.4c5-1.5 8.8-.4 16.4.3 6 1.6 14.2-4.3 3.4-3.2-7.3.5-18.2.5-21.8 1.7-5.1 1.6 1.6 1.5 2 1.2zm64.6.3c-6-3.2-5.4 2 0 0zm-117.8-.4c1-3.3-4.8 1 0 0zm35.5-.1c.7-3.4-4 2 0 0zm-3.5-.6c-1.8-.9-1.8 1.5 0 0zm11.7-.1c1-1.7-4 1.8 0 0zm2.7 0c1.9-3.3-2.6.3 0 0zm-44.3-.6c-.8-1.2-1 .6 0 0zm-2.4-.6c-1-1.2-.5 1.3 0 0zm39.8.2c-.8-1.2-1.4.7 0 0zm48.8-1.2c-1.4-4.4-14.6-.5-3.6-.8-2 .8 3.2 2.2 3.6.8zm-7.2.3c-1.6-1.3-.5 1 0 0zm-38.4-.7c-1.1-1.3-.7 1.8 0 0zm65.6.4c-.9-1.3-.9 1.2 0 0zM108.5 17c-1.9-1.8-2.9 2.2 0 0zm-60.7-.6c3-.2 14.6.8 6-1.4 7.3 1.4 15 2 3.3-1-4.3 1.9-25.9 1-15.8 2.5h6.5Zm-12.3-1c-2.8-.6-2.8 1 0 0zm24.4-1.8c-3-1.8.2 1.2 0 0zm-4.3-.4c-.5-1.3-.9 1.2 0 0zm86 309.7c1-1.3 1 1.3 0 0zm1.4.1c2-.5.3.6 0 0zm89.2-1.8c-6.7-1.6 13.5.6 8-2.4 7.3 2.9-6.3 2.7-8 2.4zm-5.9-.8c2.6-1.4-.9 1.4 0 0zm-110.2-.4c1.8-.3 1.3 1 0 0zm106-1c1.8-1 1.8.6 0 0zm17.6-1c1.4-1.2 1.4.6 0 0zm-223.4-.3c-2-4.6 2.9 0 0 0zm222.6-.7c1.5-1.6 5 .5 0 0zm-11.3-1c.1-1.6 1.6 1.2 0 0zm15-.4c.2-1.3.3 1.7 0 0zm0-1.2c1-.7.8 1.2 0 0zm-16.3 0c2.5-1.1 1.7.5 0 0zm2.3-.3c0-3 1.3 1.4 0 0zm12.9-.7c1.6-1.1 2.1 1.4 0 0zm-4.6-4.6c.9-1.3.4 1.3 0 0zM13.2 298.6c-2.3-1.3 4.6.3 0 0zm8.3-25.5c0-2.5 2.3 2 0 0zm-.3-1.5c.4-1.8 3.3 1 0 0zm.1-1.2c0-3.1 2.2.9 0 0zm.4-1.7c-3.3-4.3-.1-16.1 1.3-10.5-.7 2.9 1.5 10.1-1.3 10.5zm0-5c-.9-1.3-.9 1.2 0 0zm.7-8.5c1-1.3 1 1.2 0 0zm218-.9c1.9-3 .1 2.8 0 0zm-216-2.2c2-.3-.6.6 0 0zm220.7-2.1c-2.2-3.3 3.5-.1 0 0zm-4.5-.5c2.2-1 5-3.2 0 0zm2.3-12.5c-3-4.8 2.7-1.5 0 0zm-5.7-1.6c1-1.2 1 1.3 0 0zm-221-2.7c-1.6-5.8 2.2-3.2 0 0zm222.1-.4c.4-5.6 3.7.4 0 0zm-222.2-4c.9-1.2.9 1.3 0 0zm223-2.8c.8-1.2.3 1.3 0 0zM26.5 222c1.4-1.3 1.4 1.3 0 0zm212.4-1.3c1.5-2.9 2.4.7 0 0zm-8.5-.8c1.6-1.6 3 1.7 0 0zm8.3-1c-1.9-4.5 3.2-1.4 0 0zm3.6-.6c-4.3-2.7 3 .2 0 0zm-10.8-1.2c1.3-8.2 2 1.5 0 0zm7-1.3c-.8-4.5 8.7 3.5 0 0zm3-1.2c-.5-2.4 1-.2 0 0zm-.5-2.5c1.4-1.3 1.4 1.3 0 0zM240 211c3.4-1.5 2.3 2 0 0zm2-1c2.3 4.9.7 1.5 0 0zm-215.9-3c-1.5-2.2 2.5.7 0 0zm-2.5-2.5c-1.2-1.4 2.2 1.2 0 0zm216.6-4.8c.2-1.4.4 1.6 0 0zm0-1.4c.2-1.4.4 1.6 0 0zM23 195.7c.8-1.7 2.8.8 0 0zm217-.7c.7-1.7 1.2 1.3 0 0zm-216-.9c-4-1.2 5.6-2.9 0 0zm-8.7-3c1.1-1.2.3 1.8 0 0zm2-.4c-1.4-4.1 2.4.5 0 0zm-.7-2.4c1.2-3.5 6.1 2.3 0 0zm2.6-9.1c-.6-1.9 2 1.6 0 0zm.3-1.5c-.7-7.3 3.1 0 0 0zm-2.2-4.3c-8.8-3.8 5.1 1.6 1.3-6-3.3-2.1 1.6-3 .5-9.7-.9 3.5 5.9 18.2-1.8 15.7zm219-2.5c-2.3-6 1.3-14.7 1.2-5.3-1.7.1.6 5.3-1.1 5.3zm-222-2.3c1.4-1.1 1.4.6 0 0zM24.6 158c.7-3.6.8 3.6 0 0zm210.9.5c.9-1.3.9 1.3 0 0zm-209.6-2.1c1.4-1.2 1.4.6 0 0zm-.5-4.8c6.3-1.2-4.5 1.6 0 0zm-1.7-1c-1-4.2 2 1.7 0 0zm-1-3.7c1.5-5 3.7 1.8 0 0zm212.8-.2c-1.7-5.8 3.3-2.3 0 0zm-212.1-2.8c-1-4.5 3.2.8 0 0zm1.7-16.7c2-.5.4.7 0 0zm2.4-14c-.8-2 3.8 1.5 0 0zm-1.4-1.3c.4-1.2.9 1.3 0 0zm-11.5-.6c1.4-2.5 3 .4 0 0zm.2-2.1c-1.2-1.7 4.5 1 0 0zm11.5-.8c-5.1-3 6.7-.5 0 0zm-10.4-.7c.8-1.2.4 1.3 0 0zM15 106c-1.5-1.5 2.4-.6 0 0zm-.8-5.4c.9-1 1.3 1 0 0zM11.8 93c.3-1.3.4 1.7 0 0zm6-3c3.3-1.1-.2 1.4 0 0zM234.2 78c1.6-4-2.7-14.6 3.1-11.5 1.2 3.7 2.4 5.2-.4 8.3 4-.6-3.2 8-2.7 3.2zm2.3-2.1c-1.5-1.6 0 1.9 0 0zm-221.8 2c-.6-1.7 1.6 1.1 0 0zm1.9-.8c.4-1.3.9 1.3 0 0zM12 75c1.3-1.4.4 1.3 0 0zM234.7 64c.1-2.4 3.3 1.7 0 0zm.5-1.3c-1.3-2.5 2 1.1 0 0zm-224-1.5c.5-1.2 1.4 1.9 0 0zm3-11.1c1.1-2.1 3.6.8 0 0zm63.2-34.1c-8.2-2.6 10.7.8 0 0zm-6.1-.5c-18.3-9.8 10.3 2 0 0zm61.5-2c2-.3-.6.6 0 0zM66.2 8.3c-4.5-2 7 .7 0 0zm-3-.7c-3.9-3 10.4 0 0 0z" opacity="1"/></g></svg>