<svg width="679.3" height="170.2" viewBox="0 0 179.7 45" xmlns="http://www.w3.org/2000/svg"><path d="M17 0C13 1.6 9.3.9 5.2 1.7 2.2 3.9 3.6 13.8.4 14c2.3 2.7-3.2 5 2.2 2.6 1.2.4-2.2 1.4.7 2.4.2 2 .9 8.6-3.1 8.8-1.3 1.2 4.7 1 2 4.2-.4 3.3-2.5 7 1.3 8.3-1 5 5.2 3.8 6.7 2.5 3.5 0 10.2.4 15 .8 7.7.4 15.4 0 23.1-.4.7 1.2 5.5 0 8.3.8-.2.9 6 .5.8-.2 5.6 0 10.3 1.9 16.9.2l18.2-.2c5-.6 8.9-1 13.7.3a87 87 0 0 0 15.4.2c2.7 1.3 2.6-1.5 4.9.2-2.6-1 3.2-3.5 2.3-1.1 4.2-.8 11.1 1.7 10.5.5 5.2 1.8 11-1.5 15.9.6 7-.6 14.2-1.1 21.3-.4-1-1.7-7.3-.6-2.3-2.5 2.4-4.6 4.7 6.5 4.3-1.2-2.6-2.3-1-1.7-.2-4-5.7-.2 3.1-.8-1.4-2.2-.6-2.4 1.8-2.2-.8-2.7.7-4-1.4 1.8-1.7-2.3-2.7-3 8.2-4 2.5-5.5-2.9 2-1.3-1.8-.9-2-.5-.8 5.1-1 .4-1.7-1.8-3.8 1.4-10-1.9-12.4.7-3.8-5-2.3-2-5-4.3.6-5 0-3.2-1.5-4.2-1.8-11.3-.8-17-1.1C123 0 93.7-.2 64.4.5 48.7 0 32.8-.1 17 0zm41 1c.5 1.5-3.3-1.8 0 0zM14.5 1c-1.7.8-.2-.5 0 0zm3.1.3c0 1.3-1-1.2 0 0zm53.4 0c-1.2 1.5-2-1.5 0 0zm4 .2c-.6 2-5.7-1.4 0 0zm-48.7 0c-2.2.4 0-.6 0 0zm140.8.5c-.8 1.5-6.2-.5-.6 0zm-57.4.7c-1 .6-9.9.3-6.3.2 2 0 4.9-.7 6.3-.2zM98.5 3c-4.3.2-.9-.4 0 0zm79.3 22c-2.8 1.9-.7-1.5 0-.3zm-2.5 7.2c-.1 1.3-1-1.2 0 0zM68.9 43.8c-3.2 1-6.8 0-1.4-.1H69Zm54.9.2c-.5 1.3-1.5-1.3 0 0zM11.4.6c.7.8.8-1.1 0 0zm163 .7c3.3 1.2.2-.8 0 0zm.4 7.8c.7.8.8-1.2 0 0zm1.7 9c1.2 1.8 1.3-1.3 0 0zm-.4 5.3c2 .3-.7-.6 0 0zm-175 2.5c2.2.4 0-.6 0 0zM177 27.8c.7.8.8-1.2 0 0zm.9.3c.9 1.4 1.8-1.3 0 0zm-1.6.9c.7 1.8.7-1.3 0 0zm1.7.7c1 1.9.8-1.7 0 0zm0 1.6c4 2-2.1-2.5 0 0zM99 43.7c1 1.4.8-1.4 0 0zm-53.2.3c-2.3 1.7 4.5-1.2 0 0zm88.6.3c-2.1 1.5 5.8-.1 0 0zm44.6.2c1.8 1.3-.8-1.5 0 0zm-126.1.2c0 1.4 1.6-1.4 0 0zm1.9 0c1.9 0-.6-.7 0 0zm74.5 0c2.8.8 4-1.2 0 0zm20.2 0c1.5 1.3.5-1.3 0 0z" opacity=".8"/><path d="M160.1.8c1 1.7-7.7.3-10 .3 2-1 7-.5 10-.3zm-55.2 0A46 46 0 0 1 94.8.6c3.3 0 6.7-.2 10 0zm-17 0c-3.2 0-11-.2-3.3-.2h3.3zM61.1.8c-3.2 0-11-.2-3.3-.2h3.3zM48.3.8C44.8 2 39.3.5 37.2.6c3.5 0 8.3-.2 11 0zM34.9.8c1.3 2 6.3-.8 1.7 1.5 6.2.8 12.6-1.3 19-.8 4.9-.3 9.2-.4 11.7 1.7 4.7.4 11.7.4 17.2.5 6.3.4 12.7-1.1 19.2-1.1a48 48 0 0 1 20.2 0c7 .2 14 .6 21 .5 4.3.3 11.2 1.4 16.7 1 3-1.2 8.4-.1 2 .6-3.5-.2 3.5 2.7 3 2.6 1.6-1 2.4-5.5 2.5-1 1.9 2.7-4.2 3.9.7 5.3 2.8 3.8 2.1 10.7 1.4 13-1.1 6.3 8 7.6 6.3 14.2-2.3 1-3.4 1.3-2.9 2-2.5.6-6.6-.7-7.6-.6-1.8 0 2 3.5-2.5 2.5-3.8.5-11.7 1.8-13.3.4 6.5-1-2.2-1-3.7.7-5.1.4-10.3-.5-15.6-1.1-4.5.6-6-4.3-9.6-1.2-9.5 0-19.1.3-28.4 2.6-4.9-.2-11 0-16-1.6-2.4 2.3-8.4 1.4-9.5 2-1.1 0-5.5.4-8.1.4-3.2-4-9-3.4-13.6-4-12 0-24 .8-36 .6 2.6-1.2 6.6-.7 2.5-2.3-3.5-1.7-4.9 4-5 0C5 39-2.8 37 4.9 38c4.5 1.4 5.1-4 2.2-2.7-2.1.3-9.4.9-3.3-.3 4.4.3 3.1-1.8 3-1.6 4-.2-2.1-2 1.4-4-2.5-2.8-1.5-1.1.2-3.1-1.9-3 4.2-5.8-1.8-5-5-.1 8.1-2.2 2.2-2.3-5.2-2 4.2.4.6-3 0-3-4.9-4 .4-3.2 3.3 1 4.5-2.2 6.2-1.2C13.5 6.4 14.7-1.8 22.3.5c4.6-.4 8.8.8 12.4.2h.2zM106.4 3c2.8.8 7.8-1.3 2-.5h-1zM64.6 3c2.8 2.4 1.6-2.2 0 0zM83.9 6c.4 2.5.4-3.1 0 0zm34 8.2c1.2 0 1-1.4 0 0zm-35.6 5.6c1.2.3-.6-2 0 0zm50 .8c-1.3 1.2 2.8-1.3 0 0zm-40.3 3c1.6.7 1.8-1 0 0zM82 24c.5.6-.3-2 0 0zM11.1 37.9c2 3 .7-2.6 0 0zm144 5c1.8 1 4.7-.3 4.4-.3-3 0-2.4-2.6-4.4.3zm0-1.5c1 1.4.8-1.4 0 0zm-99.6-.1c5 .2-.9-.5 0 0zm110.4.8c2.6.6-1.2-1.6 0 0zm-107.1-.6c3.5.2.6-.4 0 0zm85.8.5c2.6 2.6 2.7-.4 0 0zm-3.3.3c-1.8-1.5-2.6 2 .9-.2 1-1.3-.9.7-.9.2zm1.5.5c2 .5 1.2-1.2 0 0zm-80.4.4c.9 1.4 1-.7 0 0zM147.9 1c-2.2.3 0-.7 0 0zm-9.7 0c-4.3.2-1-.5 0 0zm-61 .4c-3.4.3-9.5.7-11 0a58 58 0 0 1 11 0zm92.4.3c-3 .3-.2-.6 0 0zm-3.8 0c-1 1.5-.9-1.3 0 0zm-153.6 0c-3 .3.5-.6 0 0zm-2.3 0c-2 .2.7-.7 0 0zM170.6 3c-3.3 2.3 0-1.3 0 0zM8.5 3.2c-2 .2.7-.6 0 0zm-5 10.3c-.3 2-.3-2 0 0zM5 17.7c1.5 3-4.4-1.1 0 0zm172.1.4c0 1.4-1.6-1.4 0 0zM2.6 20.8c.6 1.7-3.8-.3.4 0zm4.5 1.4c-1.1 1.7-2.5 1.6.2 2.8-1 3.6-4.9-1-2.3-2.4 0-1 1.6-.6 2.1-.4zm-2.6 1.2c.6 1 .8-1.2 0 0zM3 24.9c-1.4 1.5-1.8-1.7 0 0zm-1.8.8c1.5 1.7-2.6-1.7 0 0zm177 3c-5 .2 3.3-1 0 0zM174 42c-.4 1.3-1.4-1.3 0 0zm-172.7.2c-.3 1.3-.1-1.5 0 0zm38.6 0c-2.2.4 0-.6 0 0zm128.3 1c-.3 1.4-.2-1.5 0 0zm6.5 1c-2 1 1-1.3 0 0zm-34.8-.2c-3 .3-.1-.6 0 0zM15.2 44c-2 .2.5-.6 0 0zM3.5 44c-1.5 1.3-.9-.6 0 0zm130.2.4c-2.2.4 0-.6 0 0zm-27.5 0c-2 .3.7-.6 0 0zm-49.3.3c0 1.3-1-1.2 0 0zm-20 0c1.1 1-1.9-1.3.1-.1zm76.2.2c-3.1.3-1.1-.5 0 0zm-63.9-.1c-2.8.3.3-.6 0 0zm-5 0c-2 .2.5-.6 0 0z" opacity=".8"/></svg>