<svg width="679.3" height="170.2" viewBox="0 0 179.7 45" xmlns="http://www.w3.org/2000/svg"><path d="M162.7 0c4 1.5 7.7.8 11.8 1.6 3 2.3 1.6 12.2 4.8 12.5-2.3 2.7 3.2 5-2.2 2.6-1.2.4 2.2 1.4-.7 2.4-.2 2-1 8.6 3 8.8 1.4 1.2-4.6 1-2 4.2.5 3.3 2.6 7-1.2 8.3 1 5-5.2 3.8-6.7 2.5-3.5 0-10.2.4-15 .8-7.7.4-15.4 0-23.1-.4-.7 1.2-5.5 0-8.3.8.2.9-6 .5-.8-.2-5.6 0-10.3 1.9-17 .2l-18.1-.2c-5-.6-9-1-13.7.3a87 87 0 0 1-15.4.2c-2.7 1.3-2.6-1.5-5 .2 2.7-1-3.1-3.5-2.2-1.1-4.2-.8-11.1 1.7-10.5.5-5.2 1.8-11-1.5-16 .6-7-.6-14.1-1.1-21.2-.4 1-1.7 7.3-.6 2.3-2.5C3 37 .8 48.2 1.2 40.5c2.6-2.3 1-1.7.2-4 5.7-.2-3.1-.8 1.4-2.2.6-2.4-1.8-2.2.8-2.7-.7-4 1.4 1.8 1.7-2.3 2.7-3-8.2-4-2.5-5.5 2.9 2 1.3-1.8.9-2 .5-.8-5.1-1-.4-1.7C5 16.3 1.9 10 5.2 7.7c-.7-3.8 5-2.3 2-5 4.3.6 5 0 3.2-1.5C14.6-.6 21.7.4 27.4 0 56.7 0 86-.2 115.3.5 131 0 146.9-.1 162.7 0zm-41 1c-.5 1.5 3.3-1.8 0 0zm43.5 0c1.7.8.2-.5 0 0zm-3.1.3c0 1.3 1-1.2 0 0zm-53.4 0c1.2 1.5 2-1.5 0 0zm-4 .2c.6 2 5.7-1.4 0 0zm48.7 0c2.2.4 0-.6 0 0zM12.6 2c.8 1.5 6.2-.5.6 0zm57.4.7c1 .6 9.9.3 6.3.2-2 0-5-.7-6.3-.2zm11.2.4c4.3.2.9-.4 0 0zM1.9 25c2.8 1.9.7-1.5 0-.3zm2.5 7.2c0 1.3 1-1.2 0 0zm106.4 11.5c3.2 1 6.8 0 1.4-.1h-1.5zm-55 .2c.6 1.3 1.6-1.3 0 0zM168.4.6c-.7.8-.8-1.1 0 0zm-163 .7c-3.3 1.2-.2-.8 0 0zM4.9 9c-.7.8-.8-1.2 0 0zm-1.7 9c-1.2 1.8-1.3-1.3 0 0zm.4 5.3c-2 .3.7-.6 0 0zm175 2.5c-2.2.4 0-.6 0 0zm-176 1.9c-.6.8-.7-1.2 0 0zm-.8.3c-1 1.4-1.8-1.3 0 0zm1.6.9c-.7 1.8-.7-1.3 0 0zm-1.7.7c-1 1.9-.8-1.7 0 0zm0 1.6c-4 2 2-2.5 0 0zm79 12.4c-1 1.4-.8-1.4 0 0zm53.2.3c2.3 1.7-4.5-1.2 0 0zm-88.6.3c2 1.5-5.8-.1 0 0zm-44.6.2c-1.8 1.3.8-1.5 0 0zm126 .2c0 1.4-1.5-1.4 0 0zm-1.8 0c-2 0 .6-.7 0 0zm-74.5 0c-2.8.8-4-1.2 0 0zm-20.2 0c-1.5 1.3-.5-1.3 0 0z" opacity=".8"/><path d="M19.6.8c-1 1.7 7.7.3 10 .3-2-1-7-.5-10-.3zm55.2 0a46 46 0 0 0 10-.2c-3.2 0-6.6-.2-10 0zm17 0c3.2 0 11-.2 3.3-.2h-3.3zm26.8 0c3.2 0 11-.2 3.3-.2h-3.3zm12.8 0c3.5 1.3 9-.3 11-.2-3.4 0-8.2-.2-11 0zm13.4 0c-1.3 2-6.3-.8-1.7 1.5-6.2.8-12.6-1.3-19-.8-5-.3-9.2-.4-11.7 1.7-4.7.4-11.7.4-17.2.5C88.9 4 82.5 2.6 76 2.6a48 48 0 0 0-20.2 0c-7 .2-14 .6-21 .5-4.3.3-11.2 1.4-16.7 1-3-1.2-8.4-.1-2 .6 3.5-.2-3.5 2.7-3 2.6-1.6-1-2.4-5.5-2.5-1-2 2.7 4.2 3.9-.7 5.3-2.8 3.8-2.1 10.7-1.4 13 1 6.3-8 7.6-6.3 14.2 2.3 1 3.4 1.3 2.9 2 2.5.6 6.6-.7 7.6-.6 1.8 0-2 3.5 2.5 2.5 3.8.5 11.7 1.8 13.3.4-6.5-1 2.2-1 3.7.7 5 .4 10.3-.5 15.6-1.1 4.5.6 6-4.3 9.6-1.2 9.5 0 19 .3 28.4 2.6 4.9-.2 11 0 16-1.6 2.4 2.3 8.4 1.4 9.5 2 1 0 5.5.4 8 .4 3.3-4 9-3.4 13.7-4 12 0 24 .8 36 .6-2.6-1.2-6.6-.7-2.5-2.3 3.5-1.7 4.9 4 5 0 3.2-.2 11-2.2 3.3-1.2-4.5 1.4-5.1-4-2.2-2.7 2 .3 9.4.9 3.3-.3-4.4.3-3.1-1.8-3-1.6-4-.2 2-2-1.4-4 2.5-2.8 1.5-1.1-.2-3.1 1.9-3-4.2-5.8 1.8-5 5-.1-8.1-2.2-2.2-2.3 5.2-2-4.2.4-.6-3 0-3 4.9-4-.4-3.2-3.3 1-4.5-2.2-6.2-1.2 2.5-5.2 1.3-13.4-6.3-11.1-4.6-.4-8.8.8-12.4.2h-.2zM73.3 3c-2.8.8-7.8-1.3-2-.5h1zM115 3c-2.8 2.4-1.6-2.2 0 0zM95.8 6c-.4 2.5-.4-3.1 0 0zm-34 8.2c-1.2 0-1-1.4 0 0zm35.6 5.6c-1.2.3.6-2 0 0zm-50 .8c1.3 1.2-2.8-1.3 0 0zm40.3 3c-1.6.7-1.8-1 0 0zm10 .6c-.5.6.3-2 0 0zm70.9 13.8c-2 3-.7-2.6 0 0zm-144 5c-1.8 1-4.7-.3-4.4-.3 3 0 2.4-2.6 4.4.3zm0-1.5c-1 1.4-.8-1.4 0 0zm99.6-.1c-5 .2.9-.5 0 0zM13.8 42c-2.6.6 1.2-1.6 0 0zm107-.6c-3.4.2-.5-.4 0 0zm-85.7.5c-2.6 2.6-2.7-.4 0 0zm3.3.3c1.8-1.5 2.6 2-1-.2-1-1.3 1 .7 1 .2zm-1.5.5c-2 .5-1.2-1.2 0 0zm80.4.4c-1 1.4-1-.7 0 0zM31.8 1c2.2.3 0-.7 0 0zm9.7 0c4.3.2 1-.5 0 0zm61 .4c3.4.3 9.5.7 11 0a58 58 0 0 0-11 0zM10 1.8c3 .3.2-.6 0 0zm3.8 0c1 1.5.9-1.3 0 0zm153.6 0c3 .3-.5-.6 0 0zm2.3 0c2 .2-.7-.7 0 0zM9 3c3.3 2.3 0-1.3 0 0zm162 .2c2 .2-.6-.6 0 0zm5 10.3c.4 2 .4-2 0 0zm-1.4 4.2c-1.5 3 4.4-1.1 0 0zM2.6 18c0 1.4 1.6-1.4 0 0zM177 20.8c-.6 1.7 3.8-.3-.4 0zm-4.5 1.4c1 1.7 2.5 1.6-.2 2.8 1 3.6 4.9-1 2.3-2.4 0-1-1.6-.6-2.1-.4zm2.6 1.2c-.6 1-.8-1.2 0 0zm1.5 1.5c1.4 1.5 1.8-1.7 0 0zm1.8.8c-1.5 1.7 2.6-1.7 0 0zm-177 3c5 .2-3.3-1 0 0zM5.7 42c.4 1.3 1.4-1.3 0 0zm172.7.2c.3 1.3 0-1.5 0 0zm-38.6 0c2.2.4 0-.6 0 0zm-128.3 1c.3 1.4.2-1.5 0 0zm-6.5 1c2 1-1-1.3 0 0zm34.8-.2c3 .3 0-.6 0 0zm124.7 0c2 .2-.5-.6 0 0zm11.7-.1c1.5 1.3.9-.6 0 0zM46 44.4c2.2.4 0-.6 0 0zm27.5 0c2 .3-.7-.6 0 0zm49.3.3c0 1.3 1-1.2 0 0zm20 0c-1.1 1 1.9-1.3-.1-.1zm-76.2.2c3 .3 1-.5 0 0zm63.9-.1c2.8.3-.3-.6 0 0zm5 0c2 .2-.5-.6 0 0z" opacity=".8"/></svg>